<svg width="60" height="60" viewBox="0 0 60 60" fill="none" xmlns="http://www.w3.org/2000/svg">
<g clip-path="url(#clip0_34_1912)">
<path d="M55.9673 4.03229C50.5909 -1.3441 41.8429 -1.3441 36.4664 4.03229L30.7564 9.74227C28.5217 11.9771 27.1147 14.9406 26.7949 18.0868C26.512 20.8689 27.0865 23.6835 28.4141 26.1148L26.1149 28.4139C23.6836 27.0864 20.8692 26.5119 18.087 26.7948C14.9406 27.1146 11.9771 28.5216 9.74239 30.7563L4.03229 36.4663C-1.3441 41.8427 -1.3441 50.5907 4.03229 55.9672C6.66114 58.596 10.1949 59.9999 13.7945 59.9999C15.441 59.9999 17.1019 59.7058 18.695 59.1009C19.2999 58.8713 19.6041 58.1946 19.3744 57.5896C19.1447 56.9846 18.468 56.6804 17.8632 56.9102C13.6479 58.5106 8.86946 57.4902 5.68956 54.3103C1.22687 49.8476 1.22687 42.5861 5.68956 38.1236L11.3995 32.4135C14.8228 28.9902 20.0753 28.1368 24.3747 30.1543L22.3005 32.2284C19.1531 31.1569 15.6933 31.943 13.3111 34.3252L7.60109 40.0352C5.95226 41.6841 5.04407 43.8796 5.04407 46.2169C5.04407 48.5544 5.95214 50.7497 7.60109 52.3985C9.25004 54.0474 11.4454 54.9555 13.7828 54.9555C16.1202 54.9555 18.3156 54.0474 19.9644 52.3985L25.6745 46.6885C28.0483 44.3148 28.8368 40.8709 27.782 37.7322L29.8587 35.6556C31.855 39.948 30.9946 45.1917 27.5861 48.6002L25.6043 50.582C25.1467 51.0396 25.1467 51.7815 25.6043 52.2391C25.8331 52.4679 26.133 52.5823 26.4328 52.5823C26.7327 52.5823 27.0326 52.4679 27.2613 52.2391L29.2432 50.2573C31.4678 48.0327 32.8732 45.0833 33.2006 41.9524C33.4915 39.1698 32.9237 36.3498 31.6009 33.9134L33.9114 31.6029C35.9298 32.6989 38.2114 33.2756 40.5177 33.2755C40.9877 33.2755 41.4591 33.2515 41.929 33.2032C45.069 32.8801 48.0266 31.4739 50.2572 29.2433L55.9672 23.5333C61.3437 18.1568 61.3437 9.40869 55.9673 4.03229ZM35.9823 14.9681L41.6923 9.25812C42.8986 8.05185 44.5055 7.38749 46.2169 7.38749C47.9283 7.38749 49.5352 8.05185 50.7416 9.25812C51.9479 10.4644 52.6122 12.0713 52.6122 13.7827C52.6122 15.4941 51.9479 17.101 50.7416 18.3074L45.0317 24.0173C43.6177 25.4314 41.6182 26.0758 39.6827 25.8317L39.686 25.8284C41.2003 24.3141 41.2003 21.8501 39.686 20.3358C38.9524 19.6023 37.9771 19.1983 36.9397 19.1983C35.9022 19.1983 34.9269 19.6023 34.1934 20.3359L34.1661 20.3632C33.8925 18.4088 34.5344 16.416 35.9823 14.9681ZM35.8502 21.9929C36.1411 21.7019 36.5279 21.5416 36.9394 21.5416C37.3509 21.5416 37.7377 21.7019 38.0286 21.9929C38.6293 22.5935 38.6293 23.5707 38.0286 24.1713L32.8933 29.3068C32.888 29.3121 32.8826 29.3172 32.8773 29.3227L31.5995 30.6006L30.1465 27.6966L35.8502 21.9929ZM24.1714 38.0286C23.5708 38.6294 22.5935 38.6293 21.993 38.0286C21.702 37.7377 21.5417 37.3508 21.5417 36.9394C21.5417 36.528 21.702 36.1411 21.993 35.8502L28.4001 29.4431L29.853 32.347L24.1714 38.0286ZM24.0175 45.0314L18.3074 50.7413C17.1011 51.9476 15.4942 52.612 13.7828 52.612C12.0714 52.612 10.4645 51.9476 9.25812 50.7413C8.05185 49.5351 7.38749 47.9282 7.38749 46.2168C7.38749 44.5054 8.05185 42.8985 9.25812 41.6921L14.968 35.9821C16.3892 34.561 18.4078 33.9165 20.3555 34.1733L20.3357 34.1931C19.6021 34.9267 19.1981 35.9019 19.1981 36.9393C19.1981 37.9767 19.6021 38.9521 20.3356 39.6857C21.0927 40.4428 22.0874 40.8214 23.082 40.8214C24.0765 40.8214 25.0711 40.4428 25.8282 39.6857L25.8386 39.6752C26.0985 41.617 25.456 43.593 24.0175 45.0314ZM54.3103 21.876L48.6002 27.586C45.1878 30.9985 39.9484 31.8574 35.655 29.8591L37.734 27.7802C38.6293 28.0772 39.5575 28.2242 40.4819 28.2242C42.7658 28.2242 45.0238 27.339 46.6885 25.6744L52.3985 19.9644C54.0473 18.3154 54.9555 16.1201 54.9555 13.7827C54.9555 11.4452 54.0474 9.24992 52.3985 7.60109C50.7495 5.95214 48.5542 5.04407 46.2168 5.04407C43.8793 5.04407 41.684 5.95214 40.0351 7.60109L34.3251 13.3111C31.9433 15.6929 31.1569 19.1531 32.2283 22.3005L30.1543 24.3746C28.1368 20.0752 28.9902 14.8226 32.4135 11.3994L38.1234 5.68944C42.586 1.22675 49.8476 1.22675 54.3101 5.68944C58.773 10.152 58.773 17.4133 54.3103 21.876Z" fill="black"/>
<path d="M49.2795 44.472C49.1464 44.0917 48.8271 43.8065 48.4343 43.7169C48.0414 43.6274 47.6301 43.7458 47.3452 44.0307L45.3493 46.0267L43.8775 41.8235C43.6635 41.2127 42.995 40.8909 42.3844 41.1049C41.7736 41.3187 41.4519 41.9872 41.6658 42.598L43.7536 48.5607C43.8867 48.9411 44.206 49.2263 44.5989 49.3159C44.9919 49.4058 45.4032 49.287 45.688 49.0021L47.6839 47.0061L49.1557 51.2091C49.3247 51.6919 49.7775 51.994 50.2616 51.994C50.39 51.994 50.5206 51.9726 50.6488 51.9278C51.2596 51.7139 51.5813 51.0455 51.3674 50.4346L49.2795 44.472Z" fill="#399A3A"/>
<path d="M51.2132 35.1898H46.5164C45.8693 35.1898 45.3447 35.7144 45.3447 36.3615C45.3447 37.0087 45.8693 37.5332 46.5164 37.5332H51.2132C51.8604 37.5332 52.385 37.0087 52.385 36.3615C52.385 35.7144 51.8604 35.1898 51.2132 35.1898Z" fill="#399A3A"/>
<path d="M36.3616 45.3447C35.7145 45.3447 35.1899 45.8693 35.1899 46.5164V51.2132C35.1899 51.8604 35.7145 52.3849 36.3616 52.3849C37.0088 52.3849 37.5334 51.8604 37.5334 51.2132V46.5164C37.5334 45.8693 37.0088 45.3447 36.3616 45.3447Z" fill="#399A3A"/>
<path d="M8.8127 10.8661L13.0157 12.3379L11.0197 14.3338C10.7348 14.6188 10.6163 15.03 10.706 15.4229C10.7956 15.8158 11.0808 16.1351 11.4611 16.2682L17.4237 18.356C17.5518 18.4009 17.6824 18.4222 17.811 18.4222C18.2949 18.4222 18.7479 18.1201 18.9168 17.6374C19.1307 17.0267 18.809 16.3583 18.1982 16.1443L13.9952 14.6725L15.9912 12.6766C16.2761 12.3917 16.3946 11.9804 16.305 11.5875C16.2153 11.1947 15.9301 10.8754 15.5498 10.7423L9.58708 8.6544C8.97627 8.44056 8.30793 8.76231 8.09397 9.37301C7.88014 9.98382 8.20189 10.6523 8.8127 10.8661Z" fill="#399A3A"/>
<path d="M23.6605 14.6769C24.3076 14.6769 24.8322 14.1524 24.8322 13.5052V8.80831C24.8322 8.16117 24.3076 7.6366 23.6605 7.6366C23.0133 7.6366 22.4888 8.16117 22.4888 8.80831V13.5052C22.4888 14.1524 23.0133 14.6769 23.6605 14.6769Z" fill="#399A3A"/>
<path d="M8.80843 24.8318H13.5053C14.1525 24.8318 14.6771 24.3072 14.6771 23.6601C14.6771 23.013 14.1525 22.4884 13.5053 22.4884H8.80843C8.16129 22.4884 7.63672 23.013 7.63672 23.6601C7.63672 24.3072 8.16129 24.8318 8.80843 24.8318Z" fill="#399A3A"/>
<path d="M22.7049 53.967C22.3968 53.967 22.0945 54.0924 21.8765 54.3104C21.6586 54.5283 21.5332 54.8306 21.5332 55.1388C21.5332 55.4469 21.6586 55.7492 21.8765 55.9671C22.0945 56.1851 22.3968 56.3105 22.7049 56.3105C23.0131 56.3105 23.3154 56.1851 23.5333 55.9671C23.7512 55.7492 23.8766 55.4469 23.8766 55.1388C23.8766 54.8306 23.7512 54.5283 23.5333 54.3104C23.3154 54.0924 23.0131 53.967 22.7049 53.967Z" fill="#399A3A"/>
</g>
<defs>
<clipPath id="clip0_34_1912">
<rect width="60" height="60" fill="white"/>
</clipPath>
</defs>
</svg>
