<svg width="60" height="60" viewBox="0 0 60 60" fill="none" xmlns="http://www.w3.org/2000/svg">
<g clip-path="url(#clip0_34_1868)">
<path d="M20.8362 24.2486C21.2944 23.7903 21.2944 23.0483 20.8362 22.5915C20.3794 22.1332 19.6373 22.1332 19.1791 22.5915C18.7209 23.0483 18.7209 23.7903 19.1791 24.2486C19.6373 24.7054 20.3794 24.7054 20.8362 24.2486Z" fill="#399A3A"/>
<path d="M32.4374 25.9057C33.808 24.5352 33.808 22.305 32.4374 20.9344C31.0637 19.5607 28.839 19.5602 27.4652 20.9344C26.091 22.3082 26.091 24.5315 27.4652 25.9057C28.8358 27.2763 31.0664 27.2767 32.4374 25.9057ZM29.1223 22.5915C29.5805 22.1338 30.3221 22.1338 30.7803 22.5915C31.2367 23.0484 31.2367 23.7913 30.7803 24.2482C30.323 24.705 29.5792 24.7055 29.1223 24.2482C28.665 23.7913 28.6632 23.0507 29.1223 22.5915Z" fill="#181818"/>
<path d="M27.4652 34.1913C26.091 35.5655 26.091 37.7897 27.4652 39.1639C28.839 40.5377 31.0632 40.5382 32.4374 39.1639C33.8084 37.7929 33.8084 35.5623 32.4374 34.1913C31.0637 32.818 28.839 32.8175 27.4652 34.1913ZM30.7803 37.5068C30.3221 37.9646 29.5801 37.9646 29.1223 37.5068C28.665 37.0495 28.6632 36.308 29.1223 35.8488C29.5805 35.3906 30.3221 35.3911 30.7803 35.8488C31.2372 36.3057 31.2372 37.0495 30.7803 37.5068Z" fill="#181818"/>
<path d="M20.5158 31.9359C20.6426 32.5712 21.2605 32.9819 21.8946 32.8551L38.467 29.5399C39.1014 29.4131 39.5129 28.7956 39.3861 28.1611C39.2593 27.5262 38.6418 27.1152 38.0074 27.242L21.435 30.5571C20.8 30.6839 20.3885 31.3014 20.5158 31.9359Z" fill="#181818"/>
<path d="M35.6258 6.62976C35.315 6.62976 35.017 6.7529 34.7972 6.97263L22.4939 19.2759C22.0362 19.7337 22.0362 20.4757 22.4939 20.9335C22.9517 21.3912 23.6937 21.3912 24.151 20.9335L35.6258 9.45874L50.5406 24.374L24.2321 50.6826L9.31677 35.7677L17.5222 27.5623C17.9799 27.105 17.9799 26.363 17.5222 25.9052C17.0644 25.4479 16.3224 25.4479 15.8646 25.9052L6.83112 34.9392C6.37335 35.3965 6.37335 36.1385 6.83112 36.5963L23.4035 53.1687C23.8613 53.6265 24.6028 53.6265 25.0606 53.1687L53.0267 25.2026C53.4845 24.7448 53.4845 24.0028 53.0267 23.545L36.4543 6.97263C36.2346 6.7529 35.9366 6.62976 35.6258 6.62976Z" fill="#399A3A"/>
<path d="M57.9986 0.343786L52.9687 5.37323C50.034 3.1572 45.9814 3.12103 43.0714 5.28167L38.9515 1.04233C38.9474 1.03821 38.9438 1.03455 38.9396 1.03043C37.5728 -0.33645 35.3499 -0.351099 33.9665 1.03226L1.02999 34.1107C-0.343753 35.4844 -0.344211 37.7091 1.02999 39.0834L5.67812 43.731C4.63991 46.7024 5.38881 50.071 7.65886 52.3402C9.92845 54.6107 13.2971 55.3591 16.2685 54.3218L20.9166 58.9695C22.2903 60.3432 24.516 60.3428 25.887 58.9713L58.9691 26.0312C60.3433 24.6569 60.3433 22.4336 58.9691 21.0598C58.9649 21.0557 58.9613 21.0521 58.9572 21.0479L54.7183 16.929C56.8711 14.0387 56.8629 9.98427 54.6263 7.03079L59.6557 2.00135C60.1135 1.54358 60.1135 0.801549 59.6557 0.343786C59.1979 -0.113977 58.4564 -0.113977 57.9986 0.343786ZM52.2821 16.1719C52.0605 16.3939 51.9369 16.6951 51.9387 17.0091C51.941 17.3227 52.0692 17.6225 52.294 17.8409L57.3165 22.722C57.7711 23.1816 57.7661 23.9195 57.3133 24.3718L24.2317 57.3119C23.7744 57.7692 23.0305 57.7692 22.5737 57.3119L17.3763 52.1149C17.1519 51.8902 16.8517 51.7716 16.5477 51.7716C16.3792 51.7716 16.2094 51.8078 16.0501 51.8824C13.7965 52.9398 11.0903 52.4578 9.31642 50.6826C7.54121 48.9088 7.05919 46.2029 8.11662 43.9494C8.32628 43.5021 8.23381 42.972 7.88454 42.6228L2.68755 37.4258C2.23025 36.9685 2.23025 36.2251 2.68893 35.7659L35.6259 2.68753C36.0818 2.23206 36.8188 2.22931 37.2775 2.6825L42.1582 7.70507C42.5958 8.15551 43.3451 8.19946 43.8276 7.71743C45.8335 5.7106 48.9747 5.49637 51.2887 7.05322L49.5698 8.77212C48.2629 8.14956 46.6488 8.37798 45.5685 9.4583C44.198 10.8293 44.198 13.06 45.5685 14.4305C46.9422 15.8043 49.167 15.8047 50.5412 14.4305C51.6462 13.3255 51.8399 11.7045 51.2287 10.4278L52.9472 8.7094C54.4921 10.9964 54.3141 14.1403 52.2821 16.1719ZM48.8836 11.1154C49.3409 11.5727 49.3428 12.3143 48.8836 12.7734C48.4259 13.2312 47.6838 13.2312 47.2261 12.7734C46.7688 12.3161 46.7688 11.5723 47.2256 11.1154C47.6829 10.659 48.4268 10.6581 48.8836 11.1154Z" fill="#181818"/>
</g>
<defs>
<clipPath id="clip0_34_1868">
<rect width="60" height="59.9999" fill="white"/>
</clipPath>
</defs>
</svg>
