<svg width="60" height="60" viewBox="0 0 60 60" fill="none" xmlns="http://www.w3.org/2000/svg">
<path d="M50.0033 39.5328H41.6586V20.9094C41.6586 20.2493 41.1234 19.7142 40.4634 19.7142H19.5366C18.8766 19.7142 18.3414 20.2493 18.3414 20.9094V39.5328H9.99666C4.48452 39.5328 0 44.0173 0 49.5295C0 55.0416 4.48452 59.5261 9.99666 59.5261H50.0033C55.5155 59.5261 60 55.0417 60 49.5295C60 44.0172 55.5155 39.5328 50.0033 39.5328ZM28.6606 22.1046H31.3393V28.331H28.6606V22.1046ZM20.7318 22.1046H26.2701V29.5262C26.2701 30.1863 26.8053 30.7214 27.4653 30.7214H32.5345C33.1945 30.7214 33.7297 30.1863 33.7297 29.5262V22.1046H39.2679V39.5328H20.7318V22.1046ZM50.0032 57.1358H9.99666C5.80253 57.1358 2.39039 53.7236 2.39039 49.5295C2.39039 45.3354 5.80253 41.9232 9.99666 41.9232H50.0032C54.1974 41.9232 57.6095 45.3354 57.6095 49.5295C57.6095 53.7235 54.1974 57.1358 50.0032 57.1358Z" fill="#181818"/>
<path d="M20.1171 45.2649C17.7996 45.2649 15.9141 47.1503 15.9141 49.4678C15.9141 51.7853 17.7995 53.6709 20.1171 53.6709C22.4346 53.6709 24.32 51.7854 24.32 49.4678C24.32 47.1504 22.4346 45.2649 20.1171 45.2649ZM20.1171 51.2805C19.1176 51.2805 18.3046 50.4673 18.3046 49.4679C18.3046 48.4686 19.1177 47.6554 20.1171 47.6554C21.1165 47.6554 21.9296 48.4686 21.9296 49.4679C21.9296 50.4673 21.1167 51.2805 20.1171 51.2805Z" fill="#181818"/>
<path d="M10.2347 45.2649C7.91716 45.2649 6.03174 47.1503 6.03174 49.4678C6.03174 51.7853 7.91716 53.6709 10.2347 53.6709C12.5522 53.6709 14.4376 51.7854 14.4376 49.4678C14.4376 47.1504 12.5522 45.2649 10.2347 45.2649ZM10.2347 51.2805C9.23517 51.2805 8.42212 50.4673 8.42212 49.4679C8.42212 48.4686 9.23529 47.6554 10.2347 47.6554C11.234 47.6554 12.0472 48.4686 12.0472 49.4679C12.0472 50.4673 11.234 51.2805 10.2347 51.2805Z" fill="#399A3A"/>
<path d="M29.9998 45.2649C27.6823 45.2649 25.7969 47.1503 25.7969 49.4678C25.7969 51.7853 27.6823 53.6709 29.9998 53.6709C32.3173 53.6709 34.2029 51.7854 34.2029 49.4678C34.2029 47.1504 32.3173 45.2649 29.9998 45.2649ZM29.9998 51.2805C29.0003 51.2805 28.1873 50.4673 28.1873 49.4679C28.1873 48.4686 29.0004 47.6554 29.9998 47.6554C30.9992 47.6554 31.8123 48.4686 31.8123 49.4679C31.8123 50.4673 30.9993 51.2805 29.9998 51.2805Z" fill="#399A3A"/>
<path d="M39.8826 45.2649C37.5651 45.2649 35.6797 47.1503 35.6797 49.4678C35.6797 51.7853 37.5651 53.6709 39.8826 53.6709C42.2001 53.6709 44.0856 51.7854 44.0856 49.4678C44.0856 47.1504 42.2 45.2649 39.8826 45.2649ZM39.8826 51.2805C38.8831 51.2805 38.0701 50.4673 38.0701 49.4679C38.0701 48.4686 38.8832 47.6554 39.8826 47.6554C40.8821 47.6554 41.6951 48.4686 41.6951 49.4679C41.6951 50.4673 40.8821 51.2805 39.8826 51.2805Z" fill="#181818"/>
<path d="M49.765 45.2649C47.4476 45.2649 45.562 47.1503 45.562 49.4678C45.562 51.7853 47.4474 53.6709 49.765 53.6709C52.0827 53.6709 53.968 51.7854 53.968 49.4678C53.9681 47.1504 52.0825 45.2649 49.765 45.2649ZM49.765 51.2805C48.7656 51.2805 47.9525 50.4673 47.9525 49.4679C47.9525 48.4686 48.7657 47.6554 49.765 47.6554C50.7644 47.6554 51.5776 48.4686 51.5776 49.4679C51.5776 50.4673 50.7645 51.2805 49.765 51.2805Z" fill="#399A3A"/>
<path d="M36.5856 35.7169H36.0316C35.3716 35.7169 34.8364 36.252 34.8364 36.9121C34.8364 37.5722 35.3716 38.1073 36.0316 38.1073H36.5856C37.2456 38.1073 37.7808 37.5722 37.7808 36.9121C37.7808 36.252 37.2456 35.7169 36.5856 35.7169Z" fill="#399A3A"/>
<path d="M32.3389 35.7169H23.4144C22.7544 35.7169 22.2192 36.252 22.2192 36.9121C22.2192 37.5722 22.7544 38.1073 23.4144 38.1073H32.3389C32.9989 38.1073 33.5341 37.5722 33.5341 36.9121C33.5341 36.252 32.9991 35.7169 32.3389 35.7169Z" fill="#399A3A"/>
</svg>
