<svg width="60" height="60" viewBox="0 0 60 60" fill="none" xmlns="http://www.w3.org/2000/svg">
<path d="M44.669 3.93C44.108 3.60609 43.3899 3.79851 43.066 4.35949C42.7421 4.92163 42.9345 5.63858 43.4955 5.96248C44.0564 6.28756 44.7746 6.09514 45.0985 5.53299C45.4224 4.97214 45.23 4.25507 44.669 3.93Z" fill="#399A3A"/>
<path d="M30.0002 0C29.3524 0 28.8267 0.5257 28.8267 1.17351C28.8267 1.82132 29.3524 2.34702 30.0002 2.34702C30.648 2.34702 31.1737 1.82132 31.1737 1.17351C31.1737 0.5257 30.648 0 30.0002 0Z" fill="#399A3A"/>
<path d="M30.0002 31.2148C29.3524 31.2148 28.8267 31.7405 28.8267 32.3883C28.8267 33.0361 29.3524 33.5618 30.0002 33.5618C30.648 33.5618 31.1737 33.0361 31.1737 32.3883C31.1737 31.7407 30.648 31.2148 30.0002 31.2148Z" fill="#399A3A"/>
<path d="M16.9344 4.35961C16.6105 3.79864 15.8924 3.60622 15.3314 3.93012C14.7704 4.2552 14.578 4.97214 14.9019 5.53312C15.2258 6.09526 15.9439 6.28768 16.5049 5.96261C17.0658 5.6387 17.2583 4.92164 16.9344 4.35961Z" fill="#399A3A"/>
<path d="M30.0002 4.69397C29.3521 4.69397 28.8267 5.21932 28.8267 5.86748V10.5615C28.8267 11.2097 29.3521 11.735 30.0002 11.735C30.6482 11.735 31.1737 11.2097 31.1737 10.5615V5.86736C31.1737 5.21932 30.6482 4.69397 30.0002 4.69397Z" fill="#399A3A"/>
<path d="M21.6283 12.4907L19.2814 8.42452C18.9573 7.8632 18.2397 7.67043 17.6784 7.9948C17.1171 8.31882 16.9246 9.03635 17.2487 9.5978L19.5957 13.6641C19.8132 14.0406 20.2075 14.251 20.6132 14.251C20.8121 14.251 21.014 14.2003 21.1987 14.0937C21.7599 13.7696 21.9523 13.052 21.6283 12.4907Z" fill="#399A3A"/>
<path d="M42.3218 7.99509C41.7601 7.67095 41.0428 7.86337 40.7188 8.42481L38.3717 12.491C38.0477 13.0522 38.2401 13.7698 38.8014 14.0939C38.9863 14.2005 39.1879 14.2512 39.3869 14.2512C39.7926 14.2512 40.187 14.0406 40.4045 13.6642L42.7515 9.59809C43.0755 9.03676 42.8831 8.31899 42.3218 7.99509Z" fill="#399A3A"/>
<path d="M54.6434 32.3805C54.6432 32.3661 54.6424 32.3518 54.6417 32.3372C54.641 32.3222 54.6401 32.3072 54.6389 32.2921C54.6381 32.2825 54.638 32.2728 54.6369 32.2633C54.6355 32.2502 54.6332 32.237 54.6314 32.224C54.6293 32.2094 54.6268 32.1947 54.6243 32.18C54.6223 32.1689 54.621 32.1578 54.6186 32.1469C54.6163 32.136 54.6131 32.1252 54.6106 32.1143C54.6069 32.0993 54.6029 32.0843 54.5987 32.0693C54.5953 32.0573 54.5924 32.045 54.5886 32.033C54.5859 32.0246 54.5824 32.0163 54.5795 32.0078C54.574 31.9919 54.5681 31.9761 54.562 31.9602C54.5571 31.9477 54.5525 31.935 54.5473 31.9227C54.5445 31.9163 54.5411 31.91 54.5381 31.9035C54.5306 31.887 54.5227 31.8708 54.5145 31.8545C54.5081 31.8421 54.502 31.8297 54.4952 31.8176C54.4941 31.8155 54.4933 31.8134 54.4921 31.8113L47.4603 19.3721C47.4568 19.3659 47.4523 19.3607 47.4487 19.3546C47.4291 19.3212 47.4078 19.2887 47.3848 19.2574C47.3788 19.2492 47.3731 19.2409 47.367 19.2328C47.3378 19.195 47.3065 19.1583 47.2727 19.1241C47.2722 19.1236 47.2716 19.1231 47.271 19.1225C47.2389 19.0902 47.2041 19.0601 47.168 19.0314C47.159 19.0242 47.1499 19.0175 47.1407 19.0107C47.1117 18.9891 47.0812 18.9687 47.0497 18.9493C47.0395 18.9431 47.0295 18.9366 47.0191 18.9307C46.9791 18.908 46.9379 18.8868 46.8945 18.8685C46.894 18.8682 46.8936 18.868 46.893 18.8678C46.8929 18.8677 46.8926 18.8677 46.8925 18.8675C46.8489 18.8493 46.8046 18.8347 46.7602 18.822C46.7478 18.8184 46.7352 18.8157 46.7227 18.8126C46.6878 18.8038 46.6527 18.7968 46.6176 18.7913C46.6051 18.7894 46.5928 18.7873 46.5801 18.7857C46.5331 18.78 46.4861 18.7764 46.4394 18.7764C46.4392 18.7764 46.4391 18.7764 46.4389 18.7764H46.4387C46.4367 18.7764 46.4348 18.7764 46.4328 18.7764H30.0003H29.9972H13.5733C13.5246 18.7763 13.476 18.78 13.4271 18.786C13.4158 18.7874 13.4046 18.7894 13.3934 18.7911C13.3579 18.7966 13.3224 18.8038 13.287 18.8127C13.2738 18.816 13.2608 18.819 13.2479 18.8228C13.2096 18.8338 13.1715 18.8469 13.1338 18.862C13.1275 18.8646 13.121 18.8664 13.1147 18.8691C13.1136 18.8695 13.1125 18.8698 13.1114 18.8702C13.069 18.8883 13.0287 18.9091 12.9897 18.9315C12.9798 18.9372 12.9706 18.9435 12.961 18.9493C12.9293 18.9686 12.8988 18.9891 12.8697 19.011C12.8601 19.0181 12.8506 19.0254 12.8411 19.0329C12.8085 19.0588 12.7773 19.0862 12.748 19.1152C12.7442 19.1189 12.7401 19.1223 12.7363 19.1262C12.7027 19.1603 12.6714 19.1965 12.6424 19.2342C12.6369 19.2414 12.632 19.249 12.6266 19.2562C12.6035 19.2878 12.582 19.3205 12.5623 19.3541C12.5588 19.3602 12.5543 19.3655 12.5508 19.3716L5.52369 31.7849C5.52346 31.7853 5.52334 31.7855 5.5231 31.7859L5.50916 31.8104C5.50799 31.8125 5.50717 31.8147 5.50588 31.8168C5.49861 31.8298 5.49205 31.8432 5.48525 31.8565C5.47682 31.873 5.46861 31.8896 5.461 31.9066C5.45865 31.9117 5.45607 31.9169 5.45373 31.922C5.44799 31.9353 5.44307 31.9489 5.43779 31.9625C5.43146 31.9786 5.42537 31.9948 5.41975 32.0113C5.41729 32.0184 5.41447 32.0254 5.41225 32.0324C5.40814 32.0453 5.4051 32.0586 5.40135 32.0717C5.39701 32.0871 5.39268 32.1026 5.38904 32.1184C5.38682 32.1278 5.38412 32.1371 5.38213 32.1464C5.37967 32.1583 5.37814 32.1705 5.37604 32.1824C5.37334 32.1977 5.37064 32.2129 5.36854 32.2285C5.36701 32.24 5.36502 32.2514 5.36385 32.2629C5.36268 32.2735 5.36256 32.2841 5.36162 32.2947C5.36033 32.3103 5.35916 32.3257 5.35857 32.3414C5.35811 32.3543 5.3574 32.3672 5.35729 32.3801C5.35729 32.3828 5.35693 32.3855 5.35693 32.3882C5.35693 32.3955 5.35787 32.4026 5.35799 32.4099C5.35822 32.4254 5.35881 32.4408 5.35963 32.4564C5.36033 32.4692 5.36104 32.482 5.36221 32.4947C5.36314 32.5056 5.36443 32.5163 5.36572 32.5271C5.36748 32.5418 5.36959 32.5565 5.37193 32.5712C5.37381 32.5828 5.37557 32.5945 5.37779 32.6059C5.38002 32.6179 5.38236 32.6297 5.38506 32.6416C5.38822 32.6557 5.39186 32.6697 5.39549 32.6837C5.39818 32.6942 5.401 32.7046 5.40393 32.715C5.40756 32.7276 5.41119 32.74 5.41518 32.7524C5.41951 32.7658 5.42443 32.7789 5.42924 32.792C5.43299 32.8022 5.43685 32.8124 5.44084 32.8226C5.44576 32.8348 5.45057 32.847 5.45584 32.8591C5.46111 32.8712 5.46697 32.8832 5.47271 32.8952C5.47799 32.906 5.48338 32.9168 5.48889 32.9276C5.49486 32.939 5.50072 32.9503 5.50705 32.9616C5.51303 32.9723 5.51924 32.9827 5.52557 32.9932C5.5326 33.005 5.53998 33.0166 5.54748 33.028C5.55439 33.0387 5.56154 33.0491 5.56881 33.0596C5.57525 33.0687 5.58158 33.0778 5.58838 33.087C5.59705 33.0987 5.60596 33.1101 5.6151 33.1216C5.62342 33.1319 5.63209 33.1418 5.64064 33.1519C5.64556 33.1577 5.64967 33.1637 5.65482 33.1695L29.2716 59.6082C29.3005 59.6407 29.3315 59.6713 29.3636 59.7C29.3683 59.7041 29.3733 59.7076 29.378 59.7117C29.4119 59.7411 29.4474 59.7682 29.4841 59.7934C29.496 59.8016 29.5082 59.8093 29.5204 59.8171C29.5546 59.8386 29.5898 59.8583 29.6259 59.8764C29.6358 59.8813 29.6453 59.8868 29.6554 59.8915C29.701 59.9124 29.7477 59.9304 29.7958 59.9455C29.8073 59.9491 29.819 59.9517 29.8306 59.9549C29.8691 59.9656 29.9083 59.9744 29.9479 59.9813C29.9624 59.9838 29.9768 59.9864 29.9915 59.9884C30.0427 59.9952 30.0941 59.9999 30.1465 59.9999C30.1478 59.9999 30.149 59.9999 30.1502 59.9999C30.2027 59.9998 30.2543 59.9948 30.3057 59.9878C30.3203 59.9858 30.3346 59.9832 30.3493 59.9807C30.389 59.9736 30.4283 59.9647 30.467 59.9537C30.4786 59.9504 30.4903 59.9478 30.5018 59.9441C30.5499 59.9289 30.5967 59.9106 30.6425 59.8892C30.6524 59.8846 30.6619 59.879 30.6717 59.8741C30.708 59.856 30.7432 59.8359 30.7775 59.814C30.7898 59.8062 30.8018 59.7983 30.8139 59.79C30.8502 59.7648 30.8854 59.7377 30.9189 59.7084C30.9239 59.704 30.9294 59.7001 30.9345 59.6957C30.9666 59.6665 30.9975 59.6357 31.0266 59.6027L54.3503 33.165C54.3545 33.1602 54.3579 33.1551 54.362 33.1503C54.3697 33.1412 54.3775 33.1321 54.385 33.1228C54.3951 33.1103 54.4047 33.0977 54.4142 33.0848C54.4207 33.0759 54.4272 33.0669 54.4335 33.0579C54.44 33.0485 54.4464 33.0389 54.4527 33.0293C54.4609 33.0168 54.4686 33.0041 54.4764 32.9914C54.4827 32.9808 54.489 32.9705 54.495 32.9598C54.5006 32.9496 54.5059 32.9393 54.5113 32.9289C54.5173 32.9173 54.523 32.9055 54.5286 32.8936C54.5345 32.8814 54.5405 32.8694 54.5459 32.8571C54.5507 32.846 54.5549 32.8349 54.5593 32.8238C54.5637 32.8129 54.5678 32.8019 54.5718 32.7907C54.5767 32.7773 54.5818 32.7638 54.5863 32.7502C54.5899 32.7389 54.593 32.7276 54.5964 32.7162C54.5997 32.705 54.6025 32.6936 54.6054 32.6822C54.609 32.6679 54.613 32.6537 54.6161 32.6392C54.6184 32.6286 54.6204 32.6178 54.6224 32.6069C54.6247 32.5943 54.6266 32.5817 54.6286 32.569C54.6308 32.5543 54.6332 32.5396 54.6349 32.5247C54.6361 32.5151 54.6372 32.5054 54.638 32.4957C54.6393 32.4816 54.6399 32.4675 54.6407 32.4532C54.6415 32.4381 54.6422 32.423 54.6424 32.408C54.6425 32.4017 54.6434 32.3955 54.6434 32.3891C54.6437 32.3857 54.6434 32.3832 54.6434 32.3805ZM44.6745 21.1229L40.8697 30.2023L32.6465 21.1229H44.6745ZM27.3727 21.1229L19.2239 30.215L15.3475 21.1229H27.3727ZM13.423 22.5936L17.0988 31.2149H8.54313L13.423 22.5936ZM9.15226 33.5619H18.0992L26.2696 52.724L9.15226 33.5619ZM30.1376 55.8122L20.6506 33.5619H25.3064C25.9544 33.5619 26.4799 33.0366 26.4799 32.3884C26.4799 31.7403 25.9544 31.2149 25.3064 31.2149H21.4795L30.005 21.7024L38.6204 31.2149H34.6944C34.0464 31.2149 33.5209 31.7403 33.5209 32.3884C33.5209 33.0366 34.0464 33.5619 34.6944 33.5619H39.4619L30.1376 55.8122ZM33.9866 52.7001L42.0066 33.5619H50.8702L33.9866 52.7001ZM42.99 31.2149L46.5954 22.6113L51.4589 31.2149H42.99Z" fill="#181818"/>
</svg>
