<svg width="60" height="60" viewBox="0 0 60 60" fill="none" xmlns="http://www.w3.org/2000/svg">
<path d="M42.167 29.5189C45.0266 25.4361 46.5382 20.6433 46.5382 15.6588V4.54515C46.5382 3.99629 46.1568 3.52067 45.6213 3.4012L30.4894 0.0279312C30.3214 -0.00914765 30.1475 -0.00914765 29.9795 0.0279312L14.8481 3.4012C14.312 3.52067 13.9312 3.99629 13.9312 4.54515V15.6588C13.9312 20.6433 15.4427 25.4361 18.3023 29.5185C21.162 33.6013 25.1496 36.6596 29.8343 38.3634C29.9634 38.4101 30.0994 38.4339 30.2344 38.4339C30.3699 38.4339 30.5059 38.4101 30.635 38.3634C35.3197 36.6601 39.3073 33.6013 42.167 29.5189ZM30.2344 36.0105C26.1777 34.4463 22.7221 31.7437 20.2222 28.174C17.64 24.4877 16.2749 20.1599 16.2749 15.6588V5.48448L30.2344 2.3726L44.1944 5.48448V15.6588C44.1944 20.1595 42.8294 24.4872 40.2471 28.174C37.7468 31.7437 34.2911 34.4463 30.2344 36.0105Z" fill="#181818"/>
<path d="M42.2009 8.02183C42.2009 7.47252 41.8201 6.99736 41.284 6.87788L30.4899 4.47141C30.3219 4.43433 30.1475 4.43433 29.9795 4.47141L19.185 6.87788C18.5533 7.01887 18.1555 7.64509 18.2965 8.27681C18.437 8.90852 19.0637 9.30632 19.6949 9.16533L30.2345 6.81608L39.8572 8.96117V15.6587C39.8572 19.265 38.7636 22.7321 36.6949 25.686C35.0328 28.0591 32.8071 29.9817 30.2345 31.274C27.6619 29.9822 25.4367 28.0591 23.7745 25.686C21.9851 23.1313 20.9103 20.1448 20.6668 17.0503C20.6462 16.7921 20.6315 16.5312 20.6228 16.274C20.6004 15.6267 20.0543 15.1208 19.4111 15.1428C18.7643 15.1652 18.258 15.7077 18.2804 16.3545C18.2905 16.6461 18.307 16.9423 18.3299 17.2343C18.6064 20.7458 19.8254 24.1333 21.8547 27.0305C23.8592 29.892 26.5866 32.1771 29.7424 33.6383C29.8985 33.7107 30.067 33.7468 30.235 33.7468C30.403 33.7468 30.571 33.7107 30.7271 33.6383C33.8833 32.1767 36.6107 29.892 38.6148 27.0305C40.9608 23.681 42.2014 19.7484 42.2014 15.6587V8.02183H42.2009Z" fill="#399A3A"/>
<path d="M26.8959 21.7421C27.101 21.9847 27.3953 22.1335 27.7125 22.1545C27.7386 22.1563 27.7647 22.1573 27.7908 22.1573C28.0801 22.1573 28.3607 22.0501 28.5768 21.8547L37.0729 14.1679C37.5526 13.7339 37.5897 12.9928 37.1558 12.5126C36.7213 12.0329 35.9802 11.9958 35.5005 12.4298L27.903 19.3031L25.7345 16.7382C25.3171 16.2443 24.5773 16.1821 24.0834 16.6C23.589 17.0179 23.5272 17.7572 23.9447 18.2516L26.8959 21.7421Z" fill="#181818"/>
<path d="M20.3663 38.7835C19.7488 37.9715 18.8511 37.4551 17.839 37.3288C16.8269 37.2029 15.8299 37.4826 15.0315 38.1175C14.658 38.4146 14.3563 38.7707 14.1288 39.163L13.7846 38.7144C13.4788 38.3166 13.3108 37.8213 13.3108 37.3196V26.7475C13.3108 24.5878 11.5534 22.8304 9.39371 22.8304C7.36216 22.8304 5.68582 24.3557 5.49402 26.3777L4.23975 39.6057C4.12942 40.7643 4.45627 41.9137 5.16351 42.8476L15.1245 55.8179V58.8281C15.1245 59.4754 15.6491 60 16.2963 60C16.9432 60 17.4682 59.4754 17.4682 58.8281V55.4196C17.4682 55.1614 17.3826 54.9106 17.2256 54.7059L7.02707 41.4262C6.67963 40.9675 6.5185 40.3994 6.57297 39.8268L7.8277 26.5992C7.90461 25.7867 8.57798 25.1742 9.39371 25.1742C10.2616 25.1742 10.9671 25.8801 10.9671 26.7475V37.3196C10.9671 38.3349 11.3076 39.337 11.9261 40.1417L14.3792 43.3365C14.3829 43.3415 14.3866 43.3465 14.3902 43.3516L16.3696 45.9292C16.7642 46.4424 17.4998 46.539 18.013 46.1448C18.5261 45.7507 18.6227 45.0151 18.2286 44.5015L16.2428 41.9156C15.7827 41.3067 15.8926 40.4278 16.4914 39.9517C16.7921 39.7123 17.1679 39.607 17.5492 39.6542C17.9306 39.7018 18.2689 39.8968 18.5014 40.2026L23.2324 46.42C24.1635 47.6436 24.6762 49.1643 24.6762 50.7019V58.8281C24.6762 59.4754 25.2008 60 25.8481 60C26.4953 60 27.0199 59.4754 27.0199 58.8281V50.7019C27.0199 48.6548 26.3374 46.6301 25.0978 45.0009L20.3663 38.7835Z" fill="#181818"/>
<path d="M55.9008 39.6057L54.646 26.3777C54.4542 24.3557 52.7774 22.8304 50.7463 22.8304C48.5866 22.8304 46.8293 24.5878 46.8293 26.7475V37.3196C46.8293 37.8213 46.6608 38.3166 46.3555 38.7144L46.0108 39.163C45.7837 38.7712 45.4821 38.415 45.1085 38.1175C44.3102 37.4826 43.3132 37.2029 42.301 37.3288C41.2889 37.4551 40.3913 37.9715 39.7737 38.7835L35.0427 45.0009C33.8031 46.6301 33.1201 48.6548 33.1201 50.7023V58.8281C33.1201 59.4754 33.6452 60 34.292 60C34.9393 60 35.4639 59.4754 35.4639 58.8281V50.7019C35.4639 49.1643 35.9766 47.6436 36.9077 46.42L41.6387 40.2026C41.8717 39.8968 42.21 39.7023 42.5913 39.6542C42.9726 39.607 43.3484 39.7123 43.6492 39.9517C44.2475 40.4278 44.3578 41.3067 43.8973 41.9156L41.9119 44.5015C41.5178 45.0151 41.6144 45.7507 42.1276 46.1448C42.6407 46.539 43.3763 46.4424 43.7709 45.9292L45.7498 43.3516C45.7535 43.347 45.7567 43.3424 45.7604 43.3378L48.2144 40.1422C48.8324 39.337 49.173 38.3349 49.173 37.3196V26.7475C49.173 25.8801 49.8789 25.1742 50.7463 25.1742C51.5621 25.1742 52.2355 25.7867 52.3128 26.5992L53.5675 39.8268C53.6216 40.3999 53.4604 40.9675 53.1176 41.4203L42.9144 54.7059C42.7574 54.9106 42.6723 55.1619 42.6723 55.4201V58.8281C42.6723 59.4754 43.1969 60 43.8442 60C44.4914 60 45.016 59.4754 45.016 58.8281V55.8179L54.9811 42.8416C55.6838 41.9137 56.0106 40.7643 55.9008 39.6057Z" fill="#181818"/>
<path d="M18.7894 13.1365C19.2019 13.4116 19.7603 13.3942 20.1531 13.0917C20.5225 12.8069 20.696 12.3098 20.5715 11.8584C20.4383 11.3746 20.0052 11.0194 19.5021 10.9919C19.0041 10.9649 18.534 11.2688 18.3513 11.7316C18.1508 12.2402 18.3362 12.8317 18.7894 13.1365Z" fill="#399A3A"/>
</svg>
